<svg xmlns="http://www.w3.org/2000/svg" fill="none" width="100" height="100" viewBox="0 0 100 100">
<path fill="#ff4801" d="M50 0c27.614 0 50 22.386 50 50s-22.386 50-50 50S0 77.614 0 50 22.386 0 50 0m0 30c-11.046 0-20 8.954-20 20 0 9.676 6.871 17.746 16 19.599V87a4 4 0 0 0 8 0V69.599C63.129 67.746 70 59.676 70 50c0-11.046-8.954-20-20-20m-.698-19.994a40.001 40.001 0 0 0-20.34 74.016c1.88 1.161 4.288.32 5.257-1.666s.126-4.36-1.723-5.568a32.002 32.002 0 0 1-2.742-51.568A32 32 0 1 1 68.429 76.16c-1.806 1.272-2.565 3.675-1.528 5.625 1.038 1.95 3.473 2.707 5.31 1.48a40.001 40.001 0 0 0-22.91-73.26M50 38c6.627 0 12 5.373 12 12s-5.373 12-12 12-12-5.373-12-12 5.373-12 12-12" /> </svg>
